<svg width="12" height="12" viewBox="0 0 12 12" fill="none" xmlns="http://www.w3.org/2000/svg">
<path d="M1.41494 8.24433C2.24626 9.07658 3.35331 9.57619 4.52754 9.64904C5.70176 9.72189 6.86211 9.36295 7.78997 8.63984L10.9826 11.8315C11.0958 11.9409 11.2475 12.0013 11.4049 12C11.5623 11.9986 11.7129 11.9355 11.8242 11.8242C11.9355 11.7129 11.9986 11.5624 12 11.405C12.0013 11.2477 11.9408 11.0961 11.8315 10.9829L8.63886 7.79121C9.39427 6.82204 9.75141 5.60129 9.63746 4.37792C9.5235 3.15456 8.94702 2.02073 8.0256 1.20766C7.10417 0.394599 5.9072 -0.0364525 4.6788 0.00241765C3.4504 0.0412878 2.28309 0.547152 1.41494 1.41684C0.966366 1.86506 0.610522 2.39724 0.367741 2.98299C0.12496 3.56873 0 4.19655 0 4.83059C0 5.46462 0.12496 6.09245 0.367741 6.67819C0.610522 7.26393 0.966366 7.79612 1.41494 8.24433ZM2.26383 2.26668C2.85731 1.67338 3.6382 1.30416 4.47346 1.22191C5.30872 1.13966 6.14667 1.34947 6.84453 1.81561C7.5424 2.28174 8.05701 2.97535 8.30069 3.77827C8.54436 4.58118 8.50203 5.44372 8.1809 6.21893C7.85976 6.99414 7.2797 7.63405 6.53954 8.02965C5.79938 8.42524 4.94491 8.55204 4.12172 8.38844C3.29853 8.22484 2.55754 7.78096 2.02501 7.13243C1.49248 6.4839 1.20135 5.67084 1.20122 4.83179C1.19957 4.355 1.29266 3.88263 1.47507 3.44209C1.65748 3.00155 1.92558 2.60161 2.26383 2.26548V2.26668Z" fill="#A4A4A4"/>
</svg>
